<svg xmlns="http://www.w3.org/2000/svg" xmlns:xlink="http://www.w3.org/1999/xlink" width="180" height="180" viewBox="0 0 180 180">
  <defs>
    <clipPath id="clip-CATEGORIES-icon1">
      <rect width="180" height="180"/>
    </clipPath>
  </defs>
  <g id="CATEGORIES-icon1" clip-path="url(#clip-CATEGORIES-icon1)">
    <g id="Group_1847" data-name="Group 1847" transform="translate(5295 -453)">
      <rect id="Rectangle_15" data-name="Rectangle 15" width="137.412" height="137.412" rx="20" transform="translate(-5303 550.263) rotate(-50)" fill="#29ccf6"/>
      <path id="Path_19" data-name="Path 19" d="M29.007,21.08a6.573,6.573,0,0,0-6.419-6.722c-.129,0-.259,0-.388,0a1.47,1.47,0,0,0,0,2.94,3.647,3.647,0,0,1,3.877,3.4c.007.125.009.251,0,.378a1.47,1.47,0,1,0,2.94,0Z" transform="translate(-5244.111 510.816)" fill="#fff"/>
      <path id="Path_20" data-name="Path 20" d="M84.393,17.291,71.338,3H5V66.221H18.232V81.658a6.616,6.616,0,1,0,13.232,0V66.221H84.393ZM72.631,8.778l6.807,7.454H72.631ZM28.524,81.658a3.676,3.676,0,1,1-7.351,0V58.869h7.351Zm-2.94-40.432A13.232,13.232,0,1,1,38.816,27.994,13.231,13.231,0,0,1,25.583,41.226Zm-1.47,2.94c.485,0,.97.074,1.47.074a9.755,9.755,0,0,0,1.47-.074V55.929h-2.94ZM31.464,63.28V55.929h-1.47V43.535a16.173,16.173,0,1,0-8.821,0V55.929h-2.94V63.28H7.94V5.94h61.75V19.173H81.453V63.28Z" transform="translate(-5251.509 505.475)" fill="#fff"/>
      <rect id="Rectangle_22" data-name="Rectangle 22" width="19" height="3" transform="translate(-5207 521)" fill="#fff"/>
      <rect id="Rectangle_23" data-name="Rectangle 23" width="32" height="3" transform="translate(-5207 530)" fill="#fff"/>
      <rect id="Rectangle_24" data-name="Rectangle 24" width="32" height="3" transform="translate(-5207 539)" fill="#fff"/>
      <rect id="Rectangle_25" data-name="Rectangle 25" width="32" height="4" transform="translate(-5207 548)" fill="#fff"/>
      <rect id="Rectangle_26" data-name="Rectangle 26" width="32" height="4" transform="translate(-5207 557)" fill="#fff"/>
      <path id="Path_21" data-name="Path 21" d="M13,19.47v2.94H24.762V18H13Z" transform="translate(-5247.747 512.529)" fill="#fff"/>
    </g>
  </g>
</svg>
