<svg xmlns="http://www.w3.org/2000/svg" xmlns:xlink="http://www.w3.org/1999/xlink" width="180" height="180" viewBox="0 0 180 180">
  <defs>
    <clipPath id="clip-CATEGORIES-icon3">
      <rect width="180" height="180"/>
    </clipPath>
  </defs>
  <g id="CATEGORIES-icon3" clip-path="url(#clip-CATEGORIES-icon3)">
    <g id="Group_1848" data-name="Group 1848" transform="translate(31 31)">
      <rect id="Rectangle_17" data-name="Rectangle 17" width="135.992" height="135.992" rx="20" transform="translate(-36 68.176) rotate(-50)" fill="#29ccf6"/>
      <g id="Group_12" data-name="Group 12" transform="translate(25.196 10.786)">
        <path id="Path_22" data-name="Path 22" d="M382.134,138.135a7.682,7.682,0,0,1-2.773,3.367,7.665,7.665,0,0,1-7.254.705,7.685,7.685,0,0,1-3.367-2.773,7.654,7.654,0,0,1,9.322-11.326,7.66,7.66,0,0,1,4.072,10.027Zm-1.423-11.321a10.048,10.048,0,1,0,3.644,4.426,10.024,10.024,0,0,0-3.644-4.426Z" transform="translate(-340.433 -125.095)" fill="#fff"/>
        <path id="Path_23" data-name="Path 23" d="M297.732,270.991l-1.239-2.146a1.208,1.208,0,0,0-1.585-.475l-6.486,3.253-9.661,4.843-8.158,4.091,0,0-6.71,3.4a3.654,3.654,0,0,1-2.222.359h0a3.677,3.677,0,0,1-3.126-3.646V275.7a1.206,1.206,0,0,0-1.691-1.1l-3.991,1.755,0,0-.013.006-9.644,4.241,0,0-.013.006-7.628,3.355-8.418,3.7h0a.292.292,0,0,1-.117.025.286.286,0,0,1-.123-.028h0l0,0a.261.261,0,0,1-.076-.054.27.27,0,0,1-.055-.082l0,0-1.319-3a.279.279,0,0,1-.024-.112.294.294,0,0,1,.046-.156.277.277,0,0,1,.124-.105l1.275-.559h0l9.661-4.249,7.628-3.355,9.661-4.249,3.413-1.5a3.661,3.661,0,0,1,3.574.345l.014.009c.061.041.119.083.177.13l.006.005a3.583,3.583,0,0,1,1.027,1.309,3.971,3.971,0,0,1,.365,1.672v4.752a1.206,1.206,0,0,0,1.752,1.076l7.548-3.83,21.168-10.6a1.206,1.206,0,0,0,.5-1.682l-1.248-2.161h11.243l-5.621,9.735Zm-17.225,40.4v-33.1l7.25-3.634v36.738Zm-17.819,0V286.758a6.1,6.1,0,0,0,2.29-.642h0l4.959-2.516v27.793Zm-17.82,0V282.5l7.249-3.188v32.083Zm-17.29,0V290.04a2.726,2.726,0,0,0,.52-.167h0l6.727-2.959v24.479Zm12.967-47.8a3.935,3.935,0,0,1,2.038-3.448l8.1-4.457L254,261.441a4.212,4.212,0,0,0,3.644,2.106h0a4.214,4.214,0,0,0,3.649-2.106l3.324-5.758,8.1,4.456a3.939,3.939,0,0,1,2.037,3.449v7.872l-4.155,2.08-.006,0-5.8,2.943V273.7a6.386,6.386,0,0,0-.59-2.689,6,6,0,0,0-1.718-2.184c-.1-.084-.212-.162-.321-.236h0l-.007,0-.007,0h0a6.074,6.074,0,0,0-5.9-.56l-3.413,1.5-9.661,4.249-2.632,1.157V263.588ZM305.28,259.2a1.924,1.924,0,0,0-.521-.26,1.95,1.95,0,0,0-.6-.093H291.3a1.944,1.944,0,0,0-1.685,2.919l1.012,1.752-13.459,6.738v-6.665a6.35,6.35,0,0,0-3.286-5.561h0L264.752,253a1.208,1.208,0,0,0-1.626.454l-3.915,6.781a1.8,1.8,0,0,1-.355.438V257.06l1.769-2.088a1.206,1.206,0,1,0-1.84-1.559h0l-1.178,1.391-1.167-1.251a1.206,1.206,0,1,0-1.763,1.646l1.768,1.895v3.574a1.788,1.788,0,0,1-.35-.433l-3.917-6.781a1.208,1.208,0,0,0-1.626-.453l-9.132,5.027a6.348,6.348,0,0,0-3.287,5.561v12.4l-2.585,1.137-9.661,4.249h0l-1.275.56a2.7,2.7,0,0,0-1.385,3.551h0l1.319,3,0,0a2.679,2.679,0,0,0,.545.809c.025.025.051.047.077.072V312.6a1.206,1.206,0,0,0,1.206,1.206h9.661a1.207,1.207,0,0,0,1.206-1.206V285.852l5.216-2.294V312.6a1.206,1.206,0,0,0,1.206,1.206h9.661a1.206,1.206,0,0,0,1.206-1.206v-34.35l1.6-.7v3.13a6.069,6.069,0,0,0,2.9,5.2h0a6.157,6.157,0,0,0,1.244.583V312.6a1.206,1.206,0,0,0,1.206,1.206h9.661a1.206,1.206,0,0,0,1.206-1.206V282.38l5.746-2.881v33.1A1.206,1.206,0,0,0,279.3,313.8h9.661a1.206,1.206,0,0,0,1.206-1.206V273.446l4.8-2.409,1.075,1.862h0a1.943,1.943,0,0,0,3.369,0l6.429-11.135,0,0a1.949,1.949,0,0,0-.567-2.563Z" transform="translate(-223 -230.731)" fill="#fff"/>
        <path id="Path_24" data-name="Path 24" d="M451.064,345.105l0,0,0,0-.006-.005Z" transform="translate(-411.577 -307.013)" fill="#fff"/>
      </g>
    </g>
  </g>
</svg>
