<svg xmlns="http://www.w3.org/2000/svg" width="24.307" height="18.23" viewBox="0 0 24.307 18.23"><defs><style>.a{fill:#eceff1;}.b{fill:#cfd8dc;}.c{fill:#f44336;}</style></defs><g transform="translate(0 -63.981)"><rect class="a" width="19" height="18" transform="translate(2.307 64.211)"/><path class="b" d="M256,155.684l9.115,7.2v-14.21Z" transform="translate(-243.847 -80.671)"/><path class="c" d="M22.028,64h-.76l-9.115,7.2L3.038,64h-.76A2.28,2.28,0,0,0,0,66.279V79.951A2.28,2.28,0,0,0,2.279,82.23h.76V68.02l9.115,7.011,9.115-7.012V82.23h.76a2.28,2.28,0,0,0,2.279-2.279V66.279A2.28,2.28,0,0,0,22.028,64Z" transform="translate(0 -0.019)"/></g></svg>